<svg width="258" height="505" viewBox="0 0 258 505" fill="none" xmlns="http://www.w3.org/2000/svg">
<path d="M257.77 251.07C257.325 244.828 254.797 238.91 250.594 234.273L48.9942 10.2729H48.9981C44.0293 4.74565 37.0721 1.42135 29.6581 1.02685C22.2401 0.632319 14.9671 3.20265 9.44314 8.16745C3.91974 13.1362 0.59544 20.0935 0.20484 27.5115C-0.18969 34.9295 2.38065 42.1995 7.34545 47.7225L192.145 252.992L7.34545 458.262C2.38065 463.786 -0.18976 471.059 0.20484 478.473C0.59546 485.891 3.91964 492.848 9.44314 497.817C14.9665 502.782 22.2401 505.353 29.6581 504.958C37.0722 504.564 44.0291 501.239 48.9981 495.716L250.598 271.716H250.594C255.688 266.087 258.274 258.638 257.77 251.064V251.07Z" fill="white"/>
</svg>
