<svg width="231" height="231" viewBox="0 0 231 231" fill="none" xmlns="http://www.w3.org/2000/svg">
<g clip-path="url(#clip0_1_2)">
<rect width="231" height="231" rx="42" fill="#EC8633"/>
<path d="M114.5 154.637C104.264 154.637 95.9375 162.964 95.9375 173.2C95.9375 183.436 104.264 191.762 114.5 191.762C124.736 191.762 133.062 183.436 133.062 173.2C133.062 162.964 124.736 154.637 114.5 154.637ZM114.5 184.337C108.359 184.337 103.362 179.341 103.362 173.2C103.362 167.059 108.359 162.062 114.5 162.062C120.641 162.062 125.637 167.059 125.637 173.2C125.637 179.341 120.641 184.337 114.5 184.337Z" fill="white"/>
<path d="M114.5 110.104C97.6495 110.104 81.8003 116.676 69.8736 128.604C68.4218 130.056 68.4218 132.403 69.8736 133.853C71.3255 135.305 73.6723 135.305 75.1225 133.853C85.6469 123.324 99.6318 117.529 114.497 117.529C129.361 117.529 143.346 123.329 153.871 133.853C154.595 134.577 155.545 134.94 156.496 134.94C157.446 134.94 158.397 134.576 159.121 133.853C160.573 132.401 160.573 130.054 159.121 128.604C147.201 116.676 131.349 110.104 114.503 110.104H114.5Z" fill="white"/>
<path d="M114.5 72.971C87.7403 72.971 62.5717 83.4076 43.6231 102.356C42.1712 103.808 42.1712 106.155 43.6231 107.605C45.0749 109.057 47.4217 109.057 48.8719 107.605C66.417 90.0599 89.7242 80.396 114.5 80.396C139.277 80.396 162.585 90.0599 180.129 107.605C180.853 108.329 181.803 108.692 182.754 108.692C183.704 108.692 184.655 108.328 185.379 107.605C186.831 106.153 186.831 103.806 185.379 102.356C166.429 83.4076 141.258 72.971 114.498 72.971H114.5Z" fill="white"/>
<path d="M211.632 76.1022C158.074 22.5446 70.9301 22.5446 17.3725 76.1022C15.9206 77.5541 15.9206 79.9009 17.3725 81.351C18.8244 82.8029 21.1712 82.8029 22.6214 81.351C73.2811 30.6913 155.72 30.6913 206.384 81.351C207.108 82.0753 208.058 82.4383 209.009 82.4383C209.959 82.4383 210.91 82.0737 211.634 81.351C213.084 79.9008 213.084 77.5507 211.633 76.1022H211.632Z" fill="white"/>
</g>
<defs>
<clipPath id="clip0_1_2">
<rect width="231" height="231" rx="42" fill="white"/>
</clipPath>
</defs>
</svg>
